<svg id="visual" viewBox="0 0 960 300" width="960" height="300" xmlns="http://www.w3.org/2000/svg" xmlns:xlink="http://www.w3.org/1999/xlink" version="1.1"><rect x="0" y="0" width="960" height="300" fill="#002233"></rect><path d="M0 66L22.8 63.7C45.7 61.3 91.3 56.7 137 52.8C182.7 49 228.3 46 274 53C319.7 60 365.3 77 411.2 85C457 93 503 92 548.8 90.7C594.7 89.3 640.3 87.7 686 80.7C731.7 73.7 777.3 61.3 823 60.3C868.7 59.3 914.3 69.7 937.2 74.8L960 80L960 0L937.2 0C914.3 0 868.7 0 823 0C777.3 0 731.7 0 686 0C640.3 0 594.7 0 548.8 0C503 0 457 0 411.2 0C365.3 0 319.7 0 274 0C228.3 0 182.7 0 137 0C91.3 0 45.7 0 22.8 0L0 0Z" fill="#0066FF" stroke-linecap="round" stroke-linejoin="miter"></path></svg>