<svg id="visual" viewBox="0 0 960 300" width="960" height="300" xmlns="http://www.w3.org/2000/svg" xmlns:xlink="http://www.w3.org/1999/xlink" version="1.1"><path d="M0 177L22.8 176.8C45.7 176.7 91.3 176.3 137 183.3C182.7 190.3 228.3 204.7 274 207C319.7 209.3 365.3 199.7 411.2 193.3C457 187 503 184 548.8 186.7C594.7 189.3 640.3 197.7 686 203.2C731.7 208.7 777.3 211.3 823 213.3C868.7 215.3 914.3 216.7 937.2 217.3L960 218L960 301L937.2 301C914.3 301 868.7 301 823 301C777.3 301 731.7 301 686 301C640.3 301 594.7 301 548.8 301C503 301 457 301 411.2 301C365.3 301 319.7 301 274 301C228.3 301 182.7 301 137 301C91.3 301 45.7 301 22.8 301L0 301Z" fill="#0066ff"></path><path d="M0 202L22.8 207.7C45.7 213.3 91.3 224.7 137 228C182.7 231.3 228.3 226.7 274 225.3C319.7 224 365.3 226 411.2 224.7C457 223.3 503 218.7 548.8 213.8C594.7 209 640.3 204 686 208.2C731.7 212.3 777.3 225.7 823 230.5C868.7 235.3 914.3 231.7 937.2 229.8L960 228L960 301L937.2 301C914.3 301 868.7 301 823 301C777.3 301 731.7 301 686 301C640.3 301 594.7 301 548.8 301C503 301 457 301 411.2 301C365.3 301 319.7 301 274 301C228.3 301 182.7 301 137 301C91.3 301 45.7 301 22.8 301L0 301Z" fill="#7d87ff"></path><path d="M0 240L22.8 237.3C45.7 234.7 91.3 229.3 137 227.2C182.7 225 228.3 226 274 226.5C319.7 227 365.3 227 411.2 229.7C457 232.3 503 237.7 548.8 236.8C594.7 236 640.3 229 686 225.5C731.7 222 777.3 222 823 224.2C868.7 226.3 914.3 230.7 937.2 232.8L960 235L960 301L937.2 301C914.3 301 868.7 301 823 301C777.3 301 731.7 301 686 301C640.3 301 594.7 301 548.8 301C503 301 457 301 411.2 301C365.3 301 319.7 301 274 301C228.3 301 182.7 301 137 301C91.3 301 45.7 301 22.8 301L0 301Z" fill="#b1abff"></path><path d="M0 268L22.8 267.2C45.7 266.3 91.3 264.7 137 263.3C182.7 262 228.3 261 274 261.7C319.7 262.3 365.3 264.7 411.2 261.7C457 258.7 503 250.3 548.8 250.3C594.7 250.3 640.3 258.7 686 260.7C731.7 262.7 777.3 258.3 823 254C868.7 249.7 914.3 245.3 937.2 243.2L960 241L960 301L937.2 301C914.3 301 868.7 301 823 301C777.3 301 731.7 301 686 301C640.3 301 594.7 301 548.8 301C503 301 457 301 411.2 301C365.3 301 319.7 301 274 301C228.3 301 182.7 301 137 301C91.3 301 45.7 301 22.8 301L0 301Z" fill="#dad2ff"></path><path d="M0 262L22.8 264.2C45.7 266.3 91.3 270.7 137 272.8C182.7 275 228.3 275 274 276.3C319.7 277.7 365.3 280.3 411.2 279.7C457 279 503 275 548.8 272.8C594.7 270.7 640.3 270.3 686 270.2C731.7 270 777.3 270 823 268.7C868.7 267.3 914.3 264.7 937.2 263.3L960 262L960 301L937.2 301C914.3 301 868.7 301 823 301C777.3 301 731.7 301 686 301C640.3 301 594.7 301 548.8 301C503 301 457 301 411.2 301C365.3 301 319.7 301 274 301C228.3 301 182.7 301 137 301C91.3 301 45.7 301 22.8 301L0 301Z" fill="#fcfbff"></path></svg>